<?xml version="1.0" encoding="utf-8"?>
<!-- Generator: Adobe Illustrator 24.0.2, SVG Export Plug-In . SVG Version: 6.00 Build 0)  -->
<svg version="1.1" id="Layer_1" xmlns="http://www.w3.org/2000/svg" xmlns:xlink="http://www.w3.org/1999/xlink" x="0px" y="0px"
	 viewBox="0 0 162.83 90.69" style="enable-background:new 0 0 162.83 90.69;" xml:space="preserve">
<style type="text/css">
	.st0{fill:#020000;}
	.st1{fill:none;}
	.st2{fill:#FFFFFF;}
</style>
<g>
	<polygon class="st0" points="44.4,0 23.29,0 23.29,22.61 0,22.61 0,42.62 23.29,42.62 23.29,65.23 44.4,65.23 44.4,42.62 
		67.55,42.62 67.55,22.61 44.4,22.61 	"/>
	<path class="st0" d="M134.94,22.08c-4.32,0-8.3,0.72-11.95,2.17c-3.66,1.46-6.81,3.56-9.47,6.3V23.2H90.97v67.5h23.66V58.06
		c0-5.31,1.22-9.3,3.66-11.95c2.46-2.65,5.72-3.98,9.79-3.98c7.39,0,11.08,4.61,11.08,13.82v34.75h23.66V52.09
		c0-10.05-2.55-17.56-7.67-22.54C150.07,24.56,143.32,22.08,134.94,22.08z"/>
</g>
</svg>
